# Blender v2.77 (sub 0) OBJ File: 'SpaceShip2.blend'
# www.blender.org
mtllib SpaceShip2.mtl
o Icosphere_Icosphere.001
v -0.010327 -1.107898 0.228576
v -4.702262 -0.555118 -0.297149
v 0.441403 -0.555118 -1.224108
v 5.789212 -0.555114 0.228575
v 1.781797 -0.555118 1.079225
v -4.702262 -0.555118 0.754302
v -0.456334 0.339322 -1.224107
v 1.167710 0.339322 -0.749374
v 1.167710 0.339322 0.786858
v -0.456334 0.339322 1.261591
v -1.460061 0.339318 0.018742
v -0.007466 0.892102 0.018742
v 1.043049 -0.958552 -0.271420
v -2.768158 -0.958552 -0.080435
v -0.434379 -0.633636 -1.163273
v -5.526004 -0.633634 0.228576
v -2.768157 -0.958552 0.537587
v 3.398551 -0.958550 0.228575
v 4.451954 -0.633634 -0.271422
v 1.043049 -0.958552 0.728571
v 4.451954 -0.633634 0.728572
v -1.714792 -0.633636 1.037588
v -6.177073 -0.107898 -7.145020
v -1.552032 -0.107898 10.792006
v -0.007466 -0.107898 -1.442318
v -0.962060 -0.107898 -1.163280
v 6.156415 -0.107898 -7.143097
v 0.947129 -0.107898 -1.163280
v 3.800927 -0.107898 1.037592
v 1.537104 -0.107898 10.789195
v -3.821582 -0.107898 1.037593
v -0.010327 -0.107898 1.228575
v -1.125121 0.417838 -0.711783
v 0.419447 0.417840 -1.163273
v 1.374031 0.417838 0.018742
v 0.419447 0.417840 1.200756
v -1.125121 0.417838 0.749267
v -0.271302 0.742756 -0.711781
v -0.861278 0.742754 0.018742
v 0.683281 0.742756 -0.432742
v 0.683281 0.742756 0.470226
v -0.271302 0.742756 0.749265
vn -0.0159 -0.9484 -0.3167
vn -0.1496 -0.9164 -0.3712
vn 0.0429 -0.9785 -0.2019
vn 0.0429 -0.9785 0.2019
vn -0.0159 -0.9484 0.3167
vn 0.0470 -0.9961 -0.0752
vn -0.0210 -0.4554 -0.8901
vn 0.0795 -0.9952 -0.0564
vn 0.1076 -0.4013 0.9096
vn -0.0971 -0.3891 0.9161
vn 0.0986 -0.9914 -0.0860
vn 0.2758 -0.1836 -0.9435
vn 0.2795 0.9574 0.0720
vn 0.0496 -0.1318 0.9900
vn 0.4782 -0.8712 -0.1113
vn -0.3040 0.7988 -0.5192
vn 0.3516 0.8016 -0.4835
vn 0.5318 0.8161 0.2263
vn -0.0283 0.7903 0.6121
vn -0.5511 0.8180 0.1648
vn -0.1707 0.9756 0.1378
vn -0.3418 0.8983 0.2761
vn -0.3040 0.7988 0.5192
vn 0.0650 0.9728 0.2223
vn 0.1291 0.8879 0.4415
vn 0.3516 0.8016 0.4835
vn 0.2113 0.9774 -0.0000
vn 0.4256 0.9049 -0.0000
vn 0.5318 0.8161 -0.2263
vn 0.0650 0.9728 -0.2223
vn 0.1291 0.8879 -0.4415
vn -0.0283 0.7903 -0.6121
vn -0.1707 0.9756 -0.1378
vn -0.3418 0.8983 -0.2761
vn -0.5511 0.8180 -0.1648
vn -0.3037 0.9520 0.0369
vn 0.1867 -0.9815 -0.0434
vn -0.1460 0.9315 0.3333
vn 0.0697 -0.0042 0.9976
vn 0.0500 0.0119 0.9987
vn 0.1575 0.9826 0.0984
vn -0.1847 0.9815 0.0507
vn 0.1760 0.9833 0.0453
vn -0.0306 0.9951 -0.0935
vn 0.4651 0.4668 -0.7522
vn 0.2701 0.2711 -0.9239
vn 0.0210 0.4554 -0.8901
vn -0.5019 0.4687 -0.7270
vn 0.5891 0.6238 -0.5136
vn -0.1503 0.9879 0.0373
vn -0.0497 -0.1227 0.9912
vn -0.0491 -0.1966 0.9792
vn -0.0038 -0.3305 0.9438
vn -0.1638 -0.9858 -0.0380
vn -0.6640 -0.7317 -0.1542
vn 0.0872 -0.9932 0.0772
vn -0.5386 0.6999 -0.4692
vn -0.1212 -0.9870 -0.1056
vn 0.2270 -0.1253 -0.9658
vn -0.2758 0.1836 -0.9435
vn -0.2701 -0.2711 -0.9239
vn -0.1984 -0.1992 -0.9597
vn -0.1539 0.9873 0.0397
vn -0.3857 0.9172 0.0995
vn 0.0833 -0.9964 0.0182
vn -0.0821 -0.7477 0.6589
vn -0.0294 -0.8087 0.5875
vn 0.0059 -0.6622 0.7493
vn 0.0689 -0.7234 0.6870
vn 0.0866 -0.9088 0.4081
vn 0.1598 -0.9470 0.2787
vn 0.1598 -0.9470 -0.2787
vn 0.0866 -0.9088 -0.4081
vn 0.0855 -0.8969 -0.4338
vn -0.1496 -0.9164 0.3712
vn -0.1170 -0.9931 0.0000
vn -0.0541 -0.9985 0.0000
vn 0.0524 -0.9073 -0.4173
vn -0.0160 -0.9477 -0.3188
vn -0.1198 -0.8499 -0.5132
usemtl None
s off
f 1//1 14//1 13//1
f 2//2 14//2 16//2
f 1//3 13//3 18//3
f 1//4 18//4 20//4
f 1//5 20//5 17//5
f 2//6 16//6 23//6
f 3//7 15//7 25//7
f 4//8 19//8 27//8
f 5//9 21//9 29//9
f 6//10 22//10 31//10
f 2//11 23//11 26//11
f 3//12 25//12 28//12
f 4//13 27//13 30//13
f 5//14 29//14 32//14
f 6//15 31//15 24//15
f 7//16 33//16 38//16
f 8//17 34//17 40//17
f 9//18 35//18 41//18
f 10//19 36//19 42//19
f 11//20 37//20 39//20
f 39//21 42//21 12//21
f 39//22 37//22 42//22
f 37//23 10//23 42//23
f 42//24 41//24 12//24
f 42//25 36//25 41//25
f 36//26 9//26 41//26
f 41//27 40//27 12//27
f 41//28 35//28 40//28
f 35//29 8//29 40//29
f 40//30 38//30 12//30
f 40//31 34//31 38//31
f 34//32 7//32 38//32
f 38//33 39//33 12//33
f 38//34 33//34 39//34
f 33//35 11//35 39//35
f 24//36 37//36 11//36
f 24//37 31//37 37//37
f 31//38 10//38 37//38
f 32//39 36//39 10//39
f 32//40 29//40 36//40
f 29//41 9//41 36//41
f 30//42 35//42 9//42
f 30//43 27//43 35//43
f 27//44 8//44 35//44
f 28//45 34//45 8//45
f 28//46 25//46 34//46
f 25//47 7//47 34//47
f 26//48 33//48 7//48
f 26//49 23//49 33//49
f 23//50 11//50 33//50
f 31//51 32//51 10//51
f 31//52 22//52 32//52
f 22//53 5//53 32//53
f 29//54 30//54 9//54
f 29//55 21//55 30//55
f 21//56 4//56 30//56
f 27//57 28//57 8//57
f 27//58 19//58 28//58
f 19//59 3//59 28//59
f 25//60 26//60 7//60
f 25//61 15//61 26//61
f 15//62 2//62 26//62
f 23//63 24//63 11//63
f 23//64 16//64 24//64
f 16//65 6//65 24//65
f 17//66 22//66 6//66
f 17//67 20//67 22//67
f 20//68 5//68 22//68
f 20//69 21//69 5//69
f 20//70 18//70 21//70
f 18//71 4//71 21//71
f 18//72 19//72 4//72
f 18//73 13//73 19//73
f 13//74 3//74 19//74
f 16//75 17//75 6//75
f 16//76 14//76 17//76
f 14//77 1//77 17//77
f 13//78 15//78 3//78
f 13//79 14//79 15//79
f 14//80 2//80 15//80
